<svg id="Layer_1" data-name="Layer 1" xmlns="http://www.w3.org/2000/svg" viewBox="0 0 50 50"><defs><style>.cls-1{fill:#242F4F;}</style></defs><title>Goal-46</title><path class="cls-1" d="M44.83,8.81l-2.61,0,1.69-7.52H6.69L8.3,8.83l-3,0A1.78,1.78,0,0,0,3.3,11c.43,2.95-.12,8.83,5.75,11.61l2.45,1.16L12,26.23c1.49,6.24,6.91,8,10.31,8.55a14.65,14.65,0,0,1-.1,2.19H20.8a1.37,1.37,0,1,0,0,2.74h.81c-1,2.73-3.11,5.49-8,5.49h-.73a2.4,2.4,0,0,0,0,4.8H39a2.4,2.4,0,1,0,0-4.8h-3.2c-1.22,0-5.14-.57-6.78-5.49H30.4a1.37,1.37,0,0,0,0-2.74h-2a19.62,19.62,0,0,1-.15-2.22c9.25-1.31,10-8.31,10-8.31l.62-2.78,2.17-1C47,19.86,46.4,14,46.83,11A1.78,1.78,0,0,0,44.83,8.81ZM6.67,11.6H8.89l1.82,8.52C9.13,19.52,6.67,17.63,6.67,11.6ZM39.72,20l1.88-8.39h1.85C43.46,17.25,41.3,19.27,39.72,20Z"/></svg>
