<svg id="Layer_1" data-name="Layer 1" xmlns="http://www.w3.org/2000/svg" viewBox="0 0 50 50"><defs><style>.cls-1{fill:#fdcd08;}</style></defs><title>Goal-46</title><path class="cls-1" d="M41.41,3.31,40.28,8.39a2,2,0,0,0,.27,1.51,2,2,0,0,0-.89,1.26l-1.88,8.39a2,2,0,0,0,.69,2l.09.07-.51.24A2,2,0,0,0,37,23.23L36.33,26c0,.06,0,.14,0,.2,0,.22-.81,5.51-8.31,6.57a2,2,0,0,0-1.72,2,21.6,21.6,0,0,0,.16,2.44,2,2,0,0,0,.88,1.42,2,2,0,0,0-.21,1.71c2.05,6.14,7.11,6.8,8.61,6.85H39a.4.4,0,1,1,0,.8H12.91a.4.4,0,1,1,0-.8h.73c4.82,0,8.32-2.42,9.85-6.83a2,2,0,0,0-.19-1.72,2,2,0,0,0,.91-1.45,16.63,16.63,0,0,0,.12-2.49,2,2,0,0,0-1.7-1.91c-3.3-.5-7.49-2.12-8.65-7l-.52-2.44A2,2,0,0,0,12.36,22l-.49-.23.15-.12a2,2,0,0,0,.65-1.93l-1.82-8.52A2,2,0,0,0,10,9.92a2,2,0,0,0,.28-1.51L9.16,3.31H41.41m2.5-2H6.69L8.3,8.83l-3,0H5.16A1.74,1.74,0,0,0,3.3,11c.43,2.95-.12,8.83,5.75,11.61l2.45,1.16L12,26.23c1.49,6.24,6.91,8,10.31,8.55a14.66,14.66,0,0,1-.1,2.19H20.8a1.37,1.37,0,1,0,0,2.74h.81c-1,2.73-3.11,5.49-8,5.49h-.73a2.4,2.4,0,1,0,0,4.8H39a2.4,2.4,0,1,0,0-4.8h-3.2c-1.22,0-5.14-.57-6.78-5.49H30.4a1.37,1.37,0,0,0,0-2.74h-2a19.63,19.63,0,0,1-.15-2.22c9.25-1.31,10-8.31,10-8.31l.62-2.78,2.17-1C47,19.86,46.4,14,46.83,11A1.74,1.74,0,0,0,45,8.81h-.14l-2.61,0,1.69-7.52ZM39.72,20l1.88-8.39h1.85c0,5.65-2.15,7.67-3.73,8.39Zm-29,.13c-1.59-.6-4-2.49-4-8.52H8.89l1.82,8.52Z"/></svg>