<?xml version="1.0" encoding="UTF-8"?>
<svg width="818px" height="133px" viewBox="0 0 818 133" version="1.1" xmlns="http://www.w3.org/2000/svg" xmlns:xlink="http://www.w3.org/1999/xlink">
    <title>HL_logo</title>
    <g id="Page-1" stroke="none" stroke-width="1" fill="none" fill-rule="evenodd">
        <g id="HL_logo" fill-rule="nonzero">
            <g id="Group">
                <path d="M685,132.9 L0.4,132.9 C0.4,59.5 59.9,0 133.3,0 L817.9,0 C817.9,73.4 758.4,132.9 685,132.9 Z" id="Shape" fill="#FFFFFF"></path>
                <g transform="translate(136.000000, 38.000000)" id="Shape" fill="#31B7BF">
                    <polygon points="0.2 1.2 9.9 1.2 9.9 20.2 26.7 20.2 26.7 1.2 36.4 1.2 36.4 51.5 26.7 51.5 26.7 29.5 9.9 29.5 9.9 51.5 0.2 51.5"></polygon>
                    <path d="M93.9,35.6 L63.9,35.6 C64.3,38.2 65.5,40.3 67.4,41.9 C69.3,43.5 71.7,44.2 74.6,44.2 C78.1,44.2 81.1,43 83.6,40.5 L91.5,44.2 C89.5,47 87.2,49 84.5,50.4 C81.8,51.7 78.5,52.4 74.8,52.4 C69,52.4 64.2,50.6 60.5,46.9 C56.8,43.2 55,38.6 55,33.1 C55,27.4 56.8,22.7 60.5,19 C64.2,15.3 68.7,13.4 74.3,13.4 C80.2,13.4 84.9,15.3 88.6,19 C92.3,22.7 94.1,27.7 94.1,33.9 L93.9,35.6 Z M84.5,28.3 C83.9,26.2 82.7,24.5 80.9,23.2 C79.1,21.9 77,21.3 74.6,21.3 C72,21.3 69.7,22 67.8,23.5 C66.6,24.4 65.4,26 64.4,28.3 L84.5,28.3 Z"></path>
                    <path d="M138.7,14.3 L148,14.3 L148,51.5 L138.7,51.5 L138.7,47.6 C136.9,49.3 135.1,50.6 133.2,51.3 C131.4,52.1 129.4,52.4 127.2,52.4 C122.4,52.4 118.2,50.5 114.7,46.8 C111.2,43.1 109.4,38.4 109.4,32.9 C109.4,27.2 111.1,22.5 114.5,18.8 C117.9,15.1 122,13.3 126.9,13.3 C129.1,13.3 131.2,13.7 133.2,14.6 C135.2,15.4 137,16.7 138.6,18.4 L138.6,14.3 L138.7,14.3 Z M128.8,22 C125.9,22 123.5,23 121.6,25.1 C119.7,27.1 118.7,29.8 118.7,32.9 C118.7,36.1 119.7,38.8 121.6,40.8 C123.5,42.9 125.9,43.9 128.8,43.9 C131.7,43.9 134.2,42.9 136.1,40.8 C138,38.8 139,36.1 139,32.8 C139,29.6 138,26.9 136.1,24.9 C134.2,23 131.8,22 128.8,22 Z"></path>
                    <polygon points="166.2 0 175.5 0 175.5 51.5 166.2 51.5"></polygon>
                    <polygon points="194.9 0.6 204.2 0.6 204.2 14.3 209.7 14.3 209.7 22.3 204.2 22.3 204.2 51.5 194.9 51.5 194.9 22.4 190.1 22.4 190.1 14.4 194.9 14.4"></polygon>
                    <path d="M224.6,0 L233.9,0 L233.9,18.1 C235.7,16.5 237.6,15.3 239.4,14.6 C241.2,13.8 243.1,13.4 245,13.4 C248.7,13.4 251.8,14.7 254.3,17.2 C256.5,19.4 257.5,22.7 257.5,26.9 L257.5,51.5 L248.3,51.5 L248.3,35.2 C248.3,30.9 248.1,28 247.7,26.4 C247.3,24.9 246.6,23.7 245.6,23 C244.6,22.2 243.4,21.9 241.9,21.9 C240,21.9 238.4,22.5 237,23.8 C235.6,25.1 234.7,26.8 234.2,28.9 C233.9,30 233.8,32.6 233.8,36.6 L233.8,51.5 L224.5,51.5 L224.5,0 L224.6,0 Z"></path>
                    <polygon points="275.4 0 284.7 0 284.7 51.5 275.4 51.5"></polygon>
                    <path d="M320.4,13.4 C323.9,13.4 327.2,14.3 330.3,16 C333.4,17.8 335.8,20.1 337.5,23.1 C339.2,26.1 340.1,29.4 340.1,32.8 C340.1,36.3 339.2,39.6 337.5,42.6 C335.8,45.7 333.4,48 330.4,49.8 C327.4,51.5 324.1,52.4 320.5,52.4 C315.2,52.4 310.6,50.5 306.8,46.7 C303,42.9 301.1,38.3 301.1,32.9 C301.1,27.1 303.2,22.2 307.5,18.4 C311.3,15.1 315.6,13.4 320.4,13.4 Z M320.6,22.2 C317.7,22.2 315.3,23.2 313.4,25.2 C311.5,27.2 310.5,29.8 310.5,32.9 C310.5,36.1 311.5,38.8 313.4,40.8 C315.3,42.8 317.7,43.8 320.6,43.8 C323.5,43.8 326,42.8 327.9,40.8 C329.8,38.8 330.8,36.2 330.8,33 C330.8,29.8 329.8,27.2 327.9,25.2 C326,23.2 323.6,22.2 320.6,22.2 Z"></path>
                    <path d="M394,21.8 L386.2,26.1 C384.7,24.6 383.3,23.5 381.9,22.9 C380.5,22.3 378.8,22 376.9,22 C373.4,22 370.6,23 368.4,25.1 C366.2,27.2 365.2,29.8 365.2,33.1 C365.2,36.3 366.2,38.8 368.3,40.8 C370.4,42.8 373.1,43.8 376.5,43.8 C380.7,43.8 383.9,42.4 386.3,39.5 L393.7,44.5 C389.7,49.7 384.1,52.3 376.8,52.3 C370.3,52.3 365.1,50.4 361.4,46.5 C357.7,42.6 355.8,38.1 355.8,32.9 C355.8,29.3 356.7,26 358.5,23 C360.3,20 362.8,17.6 366,15.9 C369.2,14.2 372.8,13.3 376.8,13.3 C380.5,13.3 383.8,14 386.7,15.5 C389.7,17 392.1,19.1 394,21.8 Z"></path>
                    <polygon points="412.3 0 421.6 0 421.6 29.7 435.3 14.4 447 14.4 431 32.2 449 51.5 437.4 51.5 421.6 34.4 421.6 51.5 412.3 51.5 412.3 0"></polygon>
                    <path d="M499.9,35.6 L469.9,35.6 C470.3,38.2 471.5,40.3 473.4,41.9 C475.3,43.5 477.7,44.2 480.6,44.2 C484.1,44.2 487.1,43 489.6,40.5 L497.5,44.2 C495.5,47 493.2,49 490.5,50.4 C487.8,51.7 484.5,52.4 480.8,52.4 C475,52.4 470.2,50.6 466.5,46.9 C462.8,43.2 461,38.6 461,33.1 C461,27.4 462.8,22.7 466.5,19 C470.2,15.3 474.7,13.4 480.3,13.4 C486.2,13.4 490.9,15.3 494.6,19 C498.3,22.7 500.1,27.7 500.1,33.9 L499.9,35.6 Z M490.5,28.3 C489.9,26.2 488.7,24.5 486.9,23.2 C485.1,21.9 483,21.3 480.6,21.3 C478,21.3 475.7,22 473.8,23.5 C472.6,24.4 471.4,26 470.4,28.3 L490.5,28.3 Z"></path>
                    <path d="M515,14.3 L523,14.3 L523,19 C523.9,17.2 525,15.8 526.5,14.8 C527.9,13.8 529.5,13.4 531.2,13.4 C532.4,13.4 533.7,13.7 535,14.4 L532.1,22.4 C531,21.9 530.1,21.6 529.4,21.6 C528,21.6 526.8,22.5 525.8,24.3 C524.8,26.1 524.3,29.6 524.3,34.8 L524.3,36.6 L524.3,51.6 L515,51.6 L515,14.3 Z"></path>
                </g>
            </g>
        </g>
    </g>
</svg>
